<svg width="29" height="37" viewBox="0 0 29 37" fill="none" xmlns="http://www.w3.org/2000/svg">
<g id="Group 39">
<ellipse id="Ellipse 23" cx="14.5" cy="12.1427" rx="1.5" ry="3.03567" fill="white"/>
<ellipse id="Ellipse 24" cx="23.5" cy="12.1427" rx="1.5" ry="3.03567" fill="white"/>
<path id="Vector" d="M9.65082 15.9558C9.65082 17.8776 11.1721 19.463 13.1213 19.463H19.3016H25.482C27.4311 19.463 29 21.0485 29 22.9702V24.4115C29 26.3332 27.4787 27.9187 25.5295 27.9187H19.3016H13.1689C11.2197 27.9187 9.65082 29.5041 9.65082 31.4259V33.4917C9.65082 35.4135 8.08197 36.9989 6.18033 36.9989H3.47049C1.56885 37.047 0 35.4615 0 33.5398V11.3437C0 6.49127 3.89836 2.5517 8.7 2.5517C9.31803 2.5517 9.93607 2.64778 10.5066 2.83996L16.5918 4.80974C18.3033 5.38627 20.1574 5.38627 21.8689 4.80974L24.3885 3.993C26.623 3.27235 28.9049 4.95387 28.9049 7.35605V8.55714C28.9049 10.0945 27.9066 11.4398 26.4803 11.9202L21.8689 13.4095C20.1574 13.9861 18.3033 13.9861 16.5918 13.4095L14.1197 12.5928C11.8852 11.8721 9.65082 13.5537 9.65082 15.9558Z" fill="#3447B7"/>
<ellipse id="Ellipse 21" cx="15.1303" cy="4.46552" rx="3.78261" ry="4.46552" fill="white"/>
<ellipse id="Ellipse 22" cx="21.435" cy="4.46552" rx="3.78261" ry="4.46552" fill="white"/>
<ellipse id="Ellipse 25" cx="16.3912" cy="4.46549" rx="1.26087" ry="1.91379" fill="black"/>
<ellipse id="Ellipse 26" cx="22.6954" cy="4.46549" rx="1.26087" ry="1.91379" fill="black"/>
</g>
</svg>
